<svg xmlns="http://www.w3.org/2000/svg" width="19.800" height="18.800" viewBox="0 0 19.800 18.800" fill="none">
  <path d="M 6.9 8 C 6.403 8 6 8.403 6 8.9 C 6 9.397 6.403 9.8 6.9 9.8 L 12.9 9.8 C 13.397 9.8 13.8 9.397 13.8 8.9 C 13.8 8.403 13.397 8 12.9 8 L 6.9 8 Z" fill="currentColor" fill-rule="nonzero"></path>
  <path d="M 7.47 0 L 12.33 0 C 12.584 0 12.826 0 13.03 0.016 C 13.252 0.035 13.508 0.077 13.763 0.207 C 14.12 0.389 14.411 0.68 14.593 1.037 C 14.723 1.292 14.765 1.547 14.783 1.77 C 14.8 1.974 14.8 2.216 14.8 2.47 L 14.8 3.5 L 15.735 3.5 C 16.265 3.5 16.716 3.5 17.087 3.53 C 17.476 3.562 17.855 3.632 18.217 3.816 C 18.762 4.094 19.206 4.538 19.484 5.083 C 19.668 5.445 19.738 5.824 19.77 6.213 C 19.8 6.583 19.8 7.035 19.8 7.564 L 19.8 14.735 C 19.8 15.265 19.8 15.716 19.77 16.087 C 19.738 16.476 19.668 16.855 19.484 17.216 C 19.206 17.762 18.762 18.206 18.217 18.484 C 17.855 18.668 17.476 18.738 17.087 18.77 C 16.716 18.8 16.265 18.8 15.735 18.8 L 4.065 18.8 C 3.535 18.8 3.084 18.8 2.713 18.77 C 2.324 18.738 1.945 18.668 1.583 18.484 C 1.038 18.206 0.594 17.762 0.316 17.216 C 0.132 16.855 0.062 16.476 0.03 16.087 C 0 15.716 0 15.265 0 14.735 L 0 7.564 C 0 7.035 0 6.583 0.03 6.213 C 0.062 5.824 0.132 5.445 0.316 5.083 C 0.594 4.538 1.038 4.094 1.583 3.816 C 1.945 3.632 2.324 3.562 2.713 3.53 C 3.084 3.5 3.535 3.5 4.065 3.5 L 5 3.5 L 5 2.47 C 5 2.216 5 1.974 5.017 1.77 C 5.035 1.547 5.077 1.292 5.207 1.037 C 5.389 0.68 5.68 0.389 6.037 0.207 C 6.292 0.077 6.547 0.035 6.77 0.016 C 6.974 0 7.216 0 7.47 0 Z M 13 1.9 L 13 3.5 L 6.8 3.5 L 6.8 1.9 C 6.8 1.845 6.845 1.8 6.9 1.8 L 12.9 1.8 C 12.955 1.8 13 1.845 13 1.9 Z M 3.7 5.3 C 2.885 5.3 2.692 5.311 2.56 5.354 C 2.225 5.463 1.963 5.725 1.854 6.06 C 1.811 6.192 1.8 6.385 1.8 7.2 L 1.8 15.1 C 1.8 15.914 1.811 16.108 1.854 16.24 C 1.963 16.575 2.225 16.837 2.56 16.946 C 2.692 16.989 2.885 17 3.7 17 L 16.1 17 C 16.914 17 17.108 16.989 17.24 16.946 C 17.575 16.837 17.837 16.575 17.946 16.24 C 17.989 16.108 18 15.914 18 15.1 L 18 7.2 C 18 6.385 17.989 6.192 17.946 6.06 C 17.837 5.725 17.575 5.463 17.24 5.354 C 17.108 5.311 16.914 5.3 16.1 5.3 L 3.7 5.3 Z" fill="currentColor" fill-rule="evenodd"></path>
</svg>