<svg xmlns="http://www.w3.org/2000/svg" width="18.300" height="20.300" viewBox="0 0 18.300 20.300" fill="none">
  <path d="M 6.55 0.9 C 6.55 0.403 6.147 0 5.65 0 C 5.153 0 4.75 0.403 4.75 0.9 L 4.75 2 L 4.065 2 C 3.535 2 3.084 2 2.713 2.03 C 2.324 2.062 1.945 2.131 1.583 2.316 C 1.038 2.594 0.594 3.038 0.316 3.583 C 0.132 3.945 0.062 4.324 0.03 4.713 C 0 5.083 0 5.534 0 6.064 L 0 16.235 C 0 16.765 0 17.216 0.03 17.587 C 0.062 17.976 0.132 18.354 0.316 18.716 C 0.594 19.262 1.038 19.706 1.583 19.984 C 1.945 20.168 2.324 20.238 2.713 20.27 C 3.084 20.3 3.535 20.3 4.064 20.3 L 14.235 20.3 C 14.765 20.3 15.216 20.3 15.587 20.27 C 15.976 20.238 16.355 20.168 16.717 19.984 C 17.262 19.706 17.706 19.262 17.984 18.716 C 18.168 18.354 18.238 17.976 18.27 17.587 C 18.3 17.216 18.3 16.765 18.3 16.235 L 18.3 6.064 C 18.3 5.535 18.3 5.083 18.27 4.713 C 18.238 4.324 18.168 3.945 17.984 3.583 C 17.706 3.038 17.262 2.594 16.717 2.316 C 16.355 2.131 15.976 2.062 15.587 2.03 C 15.216 2 14.765 2 14.235 2 L 13.55 2 L 13.55 0.9 C 13.55 0.403 13.147 0 12.65 0 C 12.153 0 11.75 0.403 11.75 0.9 L 11.75 2 L 6.55 2 L 6.55 0.9 Z M 11.75 4.9 L 11.75 3.8 L 6.55 3.8 L 6.55 4.9 C 6.55 5.397 6.147 5.8 5.65 5.8 C 5.153 5.8 4.75 5.397 4.75 4.9 L 4.75 3.8 L 3.7 3.8 C 2.885 3.8 2.692 3.811 2.56 3.854 C 2.225 3.962 1.963 4.225 1.854 4.56 C 1.811 4.691 1.8 4.885 1.8 5.7 L 1.8 7.75 L 16.5 7.75 L 16.5 5.7 C 16.5 4.885 16.489 4.691 16.446 4.56 C 16.337 4.225 16.075 3.962 15.74 3.854 C 15.608 3.811 15.415 3.8 14.6 3.8 L 13.55 3.8 L 13.55 4.9 C 13.55 5.397 13.147 5.8 12.65 5.8 C 12.153 5.8 11.75 5.397 11.75 4.9 Z M 16.5 9.55 L 1.8 9.55 L 1.8 16.6 C 1.8 17.414 1.811 17.608 1.854 17.74 C 1.963 18.075 2.225 18.337 2.56 18.446 C 2.692 18.489 2.885 18.5 3.7 18.5 L 14.6 18.5 C 15.415 18.5 15.608 18.489 15.74 18.446 C 16.075 18.337 16.337 18.075 16.446 17.74 C 16.489 17.608 16.5 17.414 16.5 16.6 L 16.5 9.55 Z" fill="currentColor" fill-rule="evenodd"></path>
</svg>