<svg xmlns="http://www.w3.org/2000/svg" width="19.800" height="19.800" viewBox="0 0 19.800 19.800" fill="none">
  <path d="M 0 9.9 C 0 4.432 4.432 0 9.9 0 C 15.367 0 19.8 4.432 19.8 9.9 C 19.8 15.368 15.367 19.8 9.9 19.8 C 4.432 19.8 0 15.368 0 9.9 Z M 14.547 7.776 C 14.892 7.419 14.883 6.849 14.526 6.503 C 14.169 6.158 13.599 6.167 13.253 6.524 L 8.577 11.355 L 6.547 9.252 C 6.202 8.894 5.633 8.884 5.275 9.23 C 4.917 9.575 4.907 10.145 5.252 10.502 L 7.929 13.275 C 8.098 13.451 8.332 13.55 8.576 13.55 C 8.82 13.55 9.053 13.451 9.223 13.276 L 14.547 7.776 Z" fill="currentColor" fill-rule="evenodd"></path>
</svg>