<svg xmlns="http://www.w3.org/2000/svg" width="16.800" height="19.050" viewBox="0 0 16.800 19.050" fill="none">
  <path d="M 0 3.911 C 0 3.907 0 3.904 0 3.9 C 0 2.422 1.3 1.46 2.683 0.908 C 4.153 0.321 6.151 0 8.4 0 C 10.649 0 12.647 0.321 14.117 0.908 C 15.498 1.46 16.795 2.419 16.8 3.892 C 16.8 3.895 16.8 3.898 16.8 3.9 L 16.8 15.15 L 16.8 15.16 C 16.794 16.632 15.497 17.591 14.117 18.142 C 12.647 18.729 10.649 19.05 8.4 19.05 C 6.15 19.05 4.153 18.729 2.683 18.142 C 1.3 17.59 0 16.628 0 15.15 L 0 15.144 L 0 11.411 L 0 11.4 L 0 11.394 L 0 7.661 L 0 7.65 L 0 7.644 L 0 3.911 Z M 1.8 3.896 C 1.802 3.623 2.079 3.088 3.351 2.58 C 4.542 2.104 6.295 1.8 8.4 1.8 C 10.505 1.8 12.258 2.104 13.449 2.58 C 14.727 3.09 15 3.628 15 3.9 C 15 4.172 14.727 4.71 13.449 5.22 C 12.258 5.696 10.505 6 8.4 6 C 6.295 6 4.542 5.696 3.351 5.22 C 2.08 4.713 1.803 4.178 1.8 3.904 L 1.8 3.9 L 1.8 3.896 Z M 15 6.47 L 15 7.643 L 15 7.65 C 15 7.922 14.727 8.46 13.449 8.971 C 12.258 9.446 10.505 9.75 8.4 9.75 C 6.295 9.75 4.542 9.446 3.351 8.97 C 2.08 8.463 1.803 7.928 1.8 7.655 L 1.8 6.469 C 2.082 6.63 2.381 6.771 2.683 6.892 C 4.153 7.479 6.15 7.8 8.4 7.8 C 10.649 7.8 12.647 7.479 14.117 6.892 C 14.419 6.771 14.718 6.631 15 6.47 Z M 1.8 11.405 L 1.8 10.22 C 2.082 10.381 2.381 10.521 2.683 10.642 C 4.153 11.229 6.15 11.55 8.4 11.55 C 10.649 11.55 12.647 11.229 14.117 10.642 C 14.419 10.521 14.718 10.381 15 10.22 L 15 11.393 L 15 11.4 C 15 11.672 14.727 12.21 13.449 12.721 C 12.258 13.196 10.505 13.5 8.4 13.5 C 6.295 13.5 4.542 13.196 3.351 12.72 C 2.08 12.213 1.803 11.678 1.8 11.405 Z M 14.117 14.392 C 14.419 14.271 14.718 14.131 15 13.97 L 15 15.143 L 15 15.15 C 15 15.422 14.727 15.96 13.449 16.471 C 12.258 16.946 10.505 17.25 8.4 17.25 C 6.295 17.25 4.542 16.946 3.351 16.47 C 2.079 15.962 1.803 15.427 1.8 15.154 L 1.8 15.15 L 1.8 13.97 C 2.082 14.131 2.381 14.271 2.683 14.392 C 4.153 14.979 6.15 15.3 8.4 15.3 C 10.649 15.3 12.647 14.979 14.117 14.392 Z" fill="currentColor" fill-rule="evenodd"></path>
</svg>