<svg xmlns="http://www.w3.org/2000/svg" width="18.800" height="19.800" viewBox="0 0 18.800 19.800" fill="none">
  <path d="M 3.5 8.9 C 3.5 8.403 3.903 8 4.4 8 L 8.4 8 C 8.897 8 9.3 8.403 9.3 8.9 C 9.3 9.397 8.897 9.8 8.4 9.8 L 4.4 9.8 C 3.903 9.8 3.5 9.397 3.5 8.9 Z" fill="currentColor" fill-rule="nonzero"></path>
  <path d="M 3.5 4.9 C 3.5 4.403 3.903 4 4.4 4 L 8.4 4 C 8.897 4 9.3 4.403 9.3 4.9 C 9.3 5.397 8.897 5.8 8.4 5.8 L 4.4 5.8 C 3.903 5.8 3.5 5.397 3.5 4.9 Z" fill="currentColor" fill-rule="nonzero"></path>
  <path d="M 3.267 0 C 2.875 0 2.529 0 2.242 0.023 C 1.936 0.048 1.619 0.104 1.31 0.262 C 0.859 0.492 0.492 0.859 0.262 1.31 C 0.104 1.619 0.048 1.936 0.023 2.242 C 0 2.529 0 2.875 0 3.267 L 0 19.8 L 6.386 19.8 C 6.391 19.8 6.395 19.8 6.4 19.8 C 6.404 19.8 6.409 19.8 6.413 19.8 L 11.879 19.8 L 11.9 19.8 L 11.921 19.8 L 18.8 19.8 L 18.8 11.267 C 18.8 10.875 18.8 10.529 18.777 10.242 C 18.752 9.936 18.696 9.619 18.538 9.31 C 18.308 8.859 17.941 8.492 17.49 8.262 C 17.181 8.104 16.864 8.048 16.558 8.023 C 16.271 8 15.925 8 15.533 8 L 12.8 8 L 12.8 3.267 C 12.8 2.875 12.8 2.529 12.777 2.242 C 12.752 1.936 12.696 1.619 12.538 1.31 C 12.308 0.859 11.941 0.492 11.49 0.262 C 11.181 0.104 10.864 0.048 10.558 0.023 C 10.271 0 9.925 0 9.533 0 L 3.267 0 Z M 7.3 18 L 11 18 L 11 3 C 11 2.372 10.989 2.271 10.971 2.215 C 10.911 2.032 10.768 1.889 10.585 1.829 C 10.529 1.811 10.428 1.8 9.8 1.8 L 3 1.8 C 2.372 1.8 2.271 1.811 2.215 1.829 C 2.032 1.889 1.889 2.032 1.829 2.215 C 1.811 2.271 1.8 2.372 1.8 3 L 1.8 18 L 5.5 18 L 5.5 14.9 C 5.5 14.403 5.903 14 6.4 14 C 6.897 14 7.3 14.403 7.3 14.9 L 7.3 18 Z M 17 18 L 12.8 18 L 12.8 9.8 L 15.8 9.8 C 16.428 9.8 16.529 9.811 16.585 9.829 C 16.768 9.889 16.911 10.032 16.971 10.215 C 16.989 10.271 17 10.372 17 11 L 17 18 Z" fill="currentColor" fill-rule="evenodd"></path>
</svg>