<svg xmlns="http://www.w3.org/2000/svg" width="20.427" height="14.799" viewBox="0 0 20.427 14.799" fill="none">
  <path d="M 10.213 3.5 C 8.059 3.5 6.313 5.246 6.313 7.4 C 6.313 9.554 8.059 11.3 10.213 11.3 C 12.367 11.3 14.113 9.554 14.113 7.4 C 14.113 5.246 12.367 3.5 10.213 3.5 Z M 8.113 7.4 C 8.113 6.24 9.054 5.3 10.213 5.3 C 11.373 5.3 12.313 6.24 12.313 7.4 C 12.313 8.56 11.373 9.5 10.213 9.5 C 9.054 9.5 8.113 8.56 8.113 7.4 Z" fill="currentColor" fill-rule="evenodd"></path>
  <path d="M 10.213 14.799 C 14.77 14.799 18.673 12.004 20.302 8.035 C 20.469 7.628 20.469 7.171 20.302 6.765 C 18.673 2.795 14.77 0 10.213 0 C 5.657 0 1.754 2.795 0.125 6.765 C -0.042 7.171 -0.042 7.628 0.125 8.035 C 1.754 12.004 5.657 14.799 10.213 14.799 Z M 1.811 7.4 C 3.182 4.111 6.428 1.8 10.213 1.8 C 13.999 1.8 17.244 4.111 18.616 7.4 C 17.244 10.688 13.999 12.999 10.213 12.999 C 6.428 12.999 3.182 10.688 1.811 7.4 Z" fill="currentColor" fill-rule="evenodd"></path>
</svg>