<svg xmlns="http://www.w3.org/2000/svg" width="18.300" height="21.002" viewBox="0 0 18.300 21.002" fill="none">
  <path d="M 5.65 13.701 C 5.65 15.601 7.2 17.101 9.15 17.101 C 11.1 17.101 12.65 15.601 12.65 13.701 C 12.65 11.801 11.1 10.301 9.15 8.601 C 7.2 10.301 5.65 11.801 5.65 13.701 Z" fill="currentColor" fill-rule="nonzero"></path>
  <path d="M 11.415 0.433 C 10.656 -0.266 9.461 -0.093 8.917 0.765 L 5.961 5.421 L 5.261 4.791 C 4.638 4.23 3.638 4.202 3.01 4.864 C 1.111 6.864 0 9.476 0 12.202 C 0 14.732 0.939 16.946 2.583 18.526 C 4.224 20.103 6.517 21.002 9.15 21.002 C 14.479 21.002 18.3 17.117 18.3 12.202 C 18.3 8.039 15.641 4.322 11.415 0.433 Z M 6.91 7.284 L 10.336 1.887 C 14.409 5.664 16.5 8.885 16.5 12.202 C 16.5 16.086 13.521 19.202 9.15 19.202 C 6.933 19.202 5.101 18.45 3.83 17.228 C 2.561 16.008 1.8 14.272 1.8 12.202 C 1.8 10.032 2.661 7.914 4.185 6.244 L 5.548 7.471 C 5.745 7.648 6.01 7.729 6.272 7.693 C 6.535 7.657 6.768 7.508 6.91 7.284 Z" fill="currentColor" fill-rule="evenodd"></path>
</svg>