<svg xmlns="http://www.w3.org/2000/svg" width="21" height="18.643" viewBox="0 0 21 18.643" fill="none">
  <path d="M 0 6.3 C 0 2.837 2.67 0 6.1 0 C 7.842 0 9.397 0.737 10.5 1.919 C 11.603 0.737 13.157 0 14.9 0 C 18.33 0 21 2.837 21 6.3 C 21 7.94 20.406 9.321 19.479 10.603 C 18.569 11.861 17.303 13.068 15.912 14.36 L 15.908 14.363 L 12.169 17.791 C 11.996 17.95 11.83 18.102 11.679 18.22 C 11.514 18.349 11.312 18.482 11.056 18.56 C 10.693 18.671 10.306 18.671 9.944 18.56 C 9.688 18.482 9.486 18.349 9.321 18.22 C 9.17 18.102 9.004 17.95 8.831 17.791 L 5.092 14.363 L 5.088 14.36 C 3.697 13.068 2.431 11.861 1.521 10.603 C 0.594 9.321 0 7.94 0 6.3 Z M 6.1 1.8 C 3.73 1.8 1.8 3.763 1.8 6.3 C 1.8 7.46 2.206 8.479 2.979 9.547 C 3.769 10.639 4.902 11.731 6.31 13.038 L 10.432 16.817 C 10.471 16.852 10.529 16.852 10.568 16.817 L 14.69 13.038 C 16.098 11.731 17.231 10.639 18.021 9.547 C 18.793 8.479 19.2 7.46 19.2 6.3 C 19.2 3.763 17.27 1.8 14.9 1.8 C 13.367 1.8 12.032 2.613 11.269 3.869 C 11.106 4.137 10.814 4.301 10.5 4.301 C 10.186 4.301 9.894 4.137 9.731 3.869 C 8.968 2.613 7.633 1.8 6.1 1.8 Z" fill="currentColor" fill-rule="evenodd"></path>
</svg>