<svg xmlns="http://www.w3.org/2000/svg" width="21" height="18.643" viewBox="0 0 21 18.643" fill="none">
  <path d="M 6.1 0 C 2.67 0 0 2.837 0 6.3 C 0 7.94 0.594 9.321 1.521 10.603 C 2.431 11.861 3.697 13.068 5.088 14.36 L 5.092 14.363 L 8.831 17.791 C 9.004 17.95 9.17 18.102 9.321 18.22 C 9.486 18.349 9.688 18.482 9.944 18.56 C 10.306 18.671 10.693 18.671 11.056 18.56 C 11.312 18.482 11.514 18.349 11.679 18.22 C 11.83 18.102 11.996 17.95 12.169 17.791 L 15.908 14.363 L 15.912 14.36 C 17.303 13.068 18.569 11.861 19.479 10.603 C 20.406 9.321 21 7.94 21 6.3 C 21 2.837 18.33 0 14.9 0 C 13.157 0 11.603 0.737 10.5 1.919 C 9.397 0.737 7.842 0 6.1 0 Z" fill="currentColor" fill-rule="nonzero"></path>
</svg>