<svg xmlns="http://www.w3.org/2000/svg" width="16.800" height="20.048" viewBox="0 0 16.800 20.048" fill="none">
  <path d="M 12.803 16.53 C 11.83 17.555 10.86 18.393 10.134 18.974 C 9.735 19.294 9.328 19.608 8.904 19.896 C 8.604 20.099 8.194 20.098 7.894 19.895 C 7.471 19.608 7.065 19.293 6.666 18.974 C 5.94 18.393 4.97 17.555 3.997 16.53 C 2.091 14.521 0 11.613 0 8.4 C 0 3.761 3.761 0 8.4 0 C 13.039 0 16.8 3.761 16.8 8.4 C 16.8 11.613 14.709 14.521 12.803 16.53 Z M 8.4 1.8 C 4.755 1.8 1.8 4.755 1.8 8.4 C 1.8 10.881 3.459 13.348 5.303 15.291 C 6.514 16.567 7.736 17.544 8.4 18.041 C 9.064 17.544 10.286 16.567 11.497 15.291 C 13.341 13.348 15 10.881 15 8.4 C 15 4.755 12.045 1.8 8.4 1.8 Z" fill="currentColor" fill-rule="evenodd"></path>
  <path d="M 8.4 4.75 C 6.384 4.75 4.75 6.384 4.75 8.4 C 4.75 10.416 6.384 12.05 8.4 12.05 C 10.416 12.05 12.05 10.416 12.05 8.4 C 12.05 6.384 10.416 4.75 8.4 4.75 Z M 6.55 8.4 C 6.55 7.378 7.378 6.55 8.4 6.55 C 9.422 6.55 10.25 7.378 10.25 8.4 C 10.25 9.422 9.422 10.25 8.4 10.25 C 7.378 10.25 6.55 9.422 6.55 8.4 Z" fill="currentColor" fill-rule="evenodd"></path>
</svg>