<svg xmlns="http://www.w3.org/2000/svg" width="16.852" height="21.357" viewBox="0 0 16.852 21.357" fill="none">
  <path d="M 5.381 21.346 C 6.662 21.346 7.224 20.458 8.819 20.458 C 10.414 20.458 10.796 21.312 12.212 21.312 C 13.627 21.312 14.537 19.986 15.425 18.683 C 16.414 17.189 16.818 15.728 16.852 15.661 C 16.762 15.639 14.088 14.504 14.088 11.347 C 14.088 8.606 16.2 7.37 16.313 7.28 C 14.919 5.213 12.796 5.168 12.223 5.168 C 10.662 5.168 9.381 6.145 8.572 6.145 C 7.707 6.145 6.561 5.224 5.202 5.224 C 2.618 5.224 0 7.426 0 11.572 C 0 14.144 0.977 16.874 2.168 18.638 C 3.191 20.132 4.089 21.357 5.381 21.357 L 5.381 21.346 Z M 8.673 4.921 C 9.606 4.921 10.785 4.269 11.482 3.404 C 12.111 2.618 12.571 1.517 12.571 0.416 C 12.571 0.27 12.56 0.112 12.526 0 C 11.482 0.045 10.235 0.719 9.482 1.629 C 8.887 2.326 8.347 3.404 8.347 4.516 C 8.347 4.674 8.37 4.842 8.392 4.898 C 8.46 4.91 8.561 4.921 8.673 4.921 Z" fill="currentColor" fill-rule="nonzero"></path>
</svg>