<svg xmlns="http://www.w3.org/2000/svg" width="24" height="24" viewBox="0 0 24 24"><g transform="translate(2.572 3.154)"><path d="M 9.429 0 C 4.224 0 0 3.281 0 7.317 C 0 9.834 1.631 12.031 4.12 13.37 L 3.074 17.207 C 3.054 17.283 3.058 17.364 3.085 17.438 C 3.113 17.512 3.162 17.576 3.227 17.621 C 3.291 17.666 3.368 17.69 3.447 17.691 C 3.526 17.691 3.603 17.667 3.668 17.622 L 8.25 14.577 C 8.637 14.577 9.033 14.643 9.429 14.643 C 14.633 14.643 18.857 11.361 18.857 7.317 C 18.857 3.272 14.633 0 9.429 0 Z" fill="currentColor" fill-rule="evenodd"></path></g></svg>