<svg xmlns="http://www.w3.org/2000/svg" width="24" height="24" viewBox="0 0 24 24"><path d="M23.04 12.261c0-.815-.073-1.6-.21-2.353H12v4.45h6.19a5.29 5.29 0 0 1-2.296 3.472v2.888h3.717c2.174-2.003 3.43-4.953 3.43-8.457z" fill="#4285F4"></path><path d="M12 23.5c3.105 0 5.71-1.03 7.613-2.785l-3.717-2.888c-1.03.69-2.347 1.098-3.896 1.098-2.996 0-5.532-2.024-6.437-4.744H1.73v2.982A11.497 11.497 0 0 0 12 23.5z" fill="#34A853"></path><path d="M5.563 14.18A6.92 6.92 0 0 1 5.204 12c0-.756.13-1.49.36-2.18V6.838H1.73A11.51 11.51 0 0 0 .5 12c0 1.856.444 3.612 1.23 5.162l3.833-2.982z" fill="#FBBC05"></path><path d="M12 5.075c1.69 0 3.207.581 4.4 1.722l3.3-3.3C17.705 1.638 15.1.5 12 .5 7.49.5 3.592 3.085 1.73 6.838l3.833 2.982C6.468 7.1 9.004 5.075 12 5.075z" fill="#EA4335"></path></svg>