<svg xmlns="http://www.w3.org/2000/svg" width="19.886" height="19.885" viewBox="0 0 19.886 19.885" fill="none">
  <path d="M 2.5 0.9 C 2.5 0.403 2.903 0 3.4 0 C 3.897 0 4.3 0.403 4.3 0.9 C 4.3 1.788 4.46 2.093 4.583 2.217 C 4.707 2.34 5.012 2.5 5.9 2.5 C 6.397 2.5 6.8 2.903 6.8 3.4 C 6.8 3.897 6.397 4.3 5.9 4.3 C 5.012 4.3 4.707 4.46 4.583 4.583 C 4.46 4.707 4.3 5.012 4.3 5.9 C 4.3 6.397 3.897 6.8 3.4 6.8 C 2.903 6.8 2.5 6.397 2.5 5.9 C 2.5 5.012 2.34 4.707 2.217 4.583 C 2.093 4.46 1.788 4.3 0.9 4.3 C 0.403 4.3 0 3.897 0 3.4 C 0 2.903 0.403 2.5 0.9 2.5 C 1.788 2.5 2.093 2.34 2.217 2.217 C 2.34 2.093 2.5 1.788 2.5 0.9 Z M 15.9 2 C 15.403 2 15 2.403 15 2.9 C 15 3.6 14.872 3.781 14.826 3.826 C 14.781 3.872 14.6 4 13.9 4 C 13.403 4 13 4.403 13 4.9 C 13 5.397 13.403 5.8 13.9 5.8 C 14.6 5.8 14.781 5.928 14.826 5.974 C 14.872 6.02 15 6.2 15 6.9 C 15 7.397 15.403 7.8 15.9 7.8 C 16.397 7.8 16.8 7.397 16.8 6.9 C 16.8 6.2 16.928 6.02 16.974 5.974 C 17.02 5.928 17.2 5.8 17.9 5.8 C 18.397 5.8 18.8 5.397 18.8 4.9 C 18.8 4.403 18.397 4 17.9 4 C 17.2 4 17.02 3.872 16.974 3.826 C 16.928 3.781 16.8 3.6 16.8 2.9 C 16.8 2.403 16.397 2 15.9 2 Z M 4.9 13 C 4.403 13 4 13.403 4 13.9 C 4 14.6 3.872 14.781 3.826 14.826 C 3.781 14.872 3.6 15 2.9 15 C 2.403 15 2 15.403 2 15.9 C 2 16.397 2.403 16.8 2.9 16.8 C 3.6 16.8 3.781 16.928 3.826 16.974 C 3.872 17.02 4 17.2 4 17.9 C 4 18.397 4.403 18.8 4.9 18.8 C 5.397 18.8 5.8 18.397 5.8 17.9 C 5.8 17.2 5.929 17.02 5.974 16.974 C 6.02 16.928 6.2 16.8 6.9 16.8 C 7.397 16.8 7.8 16.397 7.8 15.9 C 7.8 15.403 7.397 15 6.9 15 C 6.2 15 6.02 14.872 5.974 14.826 C 5.929 14.781 5.8 14.6 5.8 13.9 C 5.8 13.403 5.397 13 4.9 13 Z" fill="currentColor" fill-rule="evenodd"></path>
  <path d="M 9.244 6.112 C 8.712 5.848 8.088 5.848 7.556 6.112 C 7.27 6.253 7.03 6.495 6.822 6.705 L 6.705 6.822 C 6.496 7.03 6.253 7.271 6.112 7.556 C 5.848 8.088 5.848 8.712 6.112 9.243 C 6.253 9.529 6.496 9.77 6.705 9.978 L 15.822 19.095 C 16.03 19.304 16.271 19.546 16.556 19.688 C 17.088 19.951 17.712 19.951 18.243 19.688 C 18.529 19.546 18.77 19.304 18.978 19.095 L 19.095 18.978 C 19.304 18.77 19.546 18.529 19.688 18.243 C 19.951 17.712 19.951 17.088 19.688 16.556 C 19.546 16.27 19.304 16.03 19.095 15.822 L 9.978 6.705 C 9.77 6.495 9.529 6.253 9.244 6.112 Z M 8.329 7.743 C 8.368 7.704 8.432 7.704 8.471 7.743 L 12.763 12.036 L 12.036 12.763 L 7.744 8.47 C 7.704 8.431 7.704 8.368 7.744 8.329 L 8.329 7.743 Z" fill="currentColor" fill-rule="evenodd"></path>
</svg>