<svg xmlns="http://www.w3.org/2000/svg" width="17.800" height="14.300" viewBox="0 0 17.800 14.300" fill="none">
  <path d="M 0.9 0 C 0.403 0 0 0.403 0 0.9 C 0 1.397 0.403 1.8 0.9 1.8 L 16.9 1.8 C 17.397 1.8 17.8 1.397 17.8 0.9 C 17.8 0.403 17.397 0 16.9 0 L 0.9 0 Z" fill="currentColor" fill-rule="nonzero"></path>
  <path d="M 0 7.15 C 0 6.653 0.403 6.25 0.9 6.25 L 16.9 6.25 C 17.397 6.25 17.8 6.653 17.8 7.15 C 17.8 7.647 17.397 8.05 16.9 8.05 L 0.9 8.05 C 0.403 8.05 0 7.647 0 7.15 Z" fill="currentColor" fill-rule="nonzero"></path>
  <path d="M 0 13.4 C 0 12.903 0.403 12.5 0.9 12.5 L 16.9 12.5 C 17.397 12.5 17.8 12.903 17.8 13.4 C 17.8 13.897 17.397 14.3 16.9 14.3 L 0.9 14.3 C 0.403 14.3 0 13.897 0 13.4 Z" fill="currentColor" fill-rule="nonzero"></path>
</svg>