<svg xmlns="http://www.w3.org/2000/svg" width="24" height="24" viewBox="0 0 24 24"><g transform="translate(3.5 10.25)"><path d="M 1.75 3.5 C 2.716 3.5 3.5 2.717 3.5 1.75 C 3.5 0.784 2.716 0 1.75 0 C 0.783 0 0 0.784 0 1.75 C 0 2.717 0.783 3.5 1.75 3.5 Z" fill="currentColor" fill-rule="nonzero"></path><path d="M 10.25 1.75 C 10.25 2.717 9.466 3.5 8.5 3.5 C 7.533 3.5 6.75 2.717 6.75 1.75 C 6.75 0.784 7.533 0 8.5 0 C 9.466 0 10.25 0.784 10.25 1.75 Z" fill="currentColor" fill-rule="nonzero"></path><path d="M 17 1.75 C 17 2.717 16.216 3.5 15.25 3.5 C 14.283 3.5 13.5 2.717 13.5 1.75 C 13.5 0.784 14.283 0 15.25 0 C 16.216 0 17 0.784 17 1.75 Z" fill="currentColor" fill-rule="nonzero"></path></g></svg>