<svg xmlns="http://www.w3.org/2000/svg" width="16.548" height="18.002" viewBox="0 0 16.548 18.002" fill="none">
  <path d="M 2.5 1.25 C 2.5 0.56 1.94 0 1.25 0 C 0.56 0 0 0.56 0 1.25 L 0 16.752 C 0 17.442 0.56 18.002 1.25 18.002 C 1.94 18.002 2.5 17.442 2.5 16.752 L 2.5 13.042 C 4.544 11.338 6.642 12.105 8.751 12.875 C 10.909 13.663 13.078 14.456 15.215 12.613 C 16.067 11.879 16.548 10.688 16.548 9.452 L 16.548 2.408 C 16.548 1.576 15.678 1.225 15.033 1.737 C 12.734 3.558 10.593 2.744 8.501 1.949 C 6.487 1.183 4.518 0.435 2.5 2.077 L 2.5 1.25 Z" fill="currentColor" fill-rule="nonzero"></path>
</svg>