<svg xmlns="http://www.w3.org/2000/svg" width="24" height="16.700" viewBox="0 0 24 16.700" fill="none">
  <path d="M 19.113 3.49 C 19.113 5.417 17.55 6.98 15.621 6.98 C 13.693 6.98 12.13 5.417 12.13 3.49 C 12.13 1.562 13.693 0 15.621 0 C 17.55 0 19.113 1.562 19.113 3.49 Z" fill="currentColor" fill-rule="nonzero"></path>
  <path d="M 10.641 4.863 C 10.641 6.59 9.24 7.99 7.513 7.99 C 5.785 7.99 4.385 6.59 4.385 4.863 C 4.385 3.136 5.785 1.736 7.513 1.736 C 9.24 1.736 10.641 3.136 10.641 4.863 Z" fill="currentColor" fill-rule="nonzero"></path>
  <path d="M 8.546 9.618 C 8.574 9.594 8.602 9.571 8.625 9.553 C 8.267 9.515 7.895 9.487 7.508 9.487 C 2.77 9.487 0 12.433 0 15.225 C 0 16.109 0.591 16.695 1.471 16.695 L 6.284 16.695 C 6 16.23 5.842 15.671 5.842 15.053 C 5.842 13.047 6.824 11.065 8.542 9.613 L 8.546 9.618 Z" fill="currentColor" fill-rule="nonzero"></path>
  <path d="M 10.51 9.939 C 11.851 9.148 13.569 8.65 15.621 8.65 L 15.621 8.654 C 20.909 8.654 24 11.935 24 15.057 C 24 16.044 23.344 16.7 22.357 16.7 L 8.886 16.7 C 7.899 16.7 7.243 16.044 7.243 15.057 C 7.243 13.149 8.402 11.181 10.51 9.939 Z" fill="currentColor" fill-rule="nonzero"></path>
</svg>