<svg xmlns="http://www.w3.org/2000/svg" width="20" height="20" viewBox="0 0 20 20" fill="none">
  <path d="M 20 10 C 20 15.523 15.523 20 10 20 C 4.477 20 0 15.523 0 10 C 0 4.477 4.477 0 10 0 C 15.523 0 20 4.477 20 10 Z M 10 10 C 11.841 10 13.333 8.508 13.333 6.667 C 13.333 4.826 11.841 3.333 10 3.333 C 8.159 3.333 6.667 4.826 6.667 6.667 C 6.667 8.508 8.159 10 10 10 Z M 10 11.667 C 7.275 11.667 4.867 12.979 3.346 15 C 4.867 17.021 7.279 18.333 10 18.333 C 12.721 18.333 15.133 17.021 16.654 15 C 15.133 12.979 12.721 11.667 10 11.667 Z" fill="currentColor" fill-rule="evenodd"></path>
</svg>