<svg xmlns="http://www.w3.org/2000/svg" width="16" height="14" viewBox="0 0 16 14" fill="none">
  <path d="M 15.333 0 L 0.667 0 C 0.298 0 0 0.366 0 0.817 L 0 1.633 C 0 2.084 0.298 2.45 0.667 2.45 L 15.333 2.45 C 15.701 2.45 16 2.084 16 1.633 L 16 0.817 C 16 0.366 15.701 0 15.333 0 Z" fill="currentColor" fill-rule="nonzero"></path>
  <path d="M 15.333 5.775 L 0.667 5.775 C 0.298 5.775 0 6.141 0 6.592 L 0 7.408 C 0 7.859 0.298 8.225 0.667 8.225 L 15.333 8.225 C 15.701 8.225 16 7.859 16 7.408 L 16 6.592 C 16 6.141 15.701 5.775 15.333 5.775 Z" fill="currentColor" fill-rule="nonzero"></path>
  <path d="M 0.667 11.55 L 15.333 11.55 C 15.701 11.55 16 11.916 16 12.367 L 16 13.183 C 16 13.634 15.701 14 15.333 14 L 0.667 14 C 0.298 14 0 13.634 0 13.183 L 0 12.367 C 0 11.916 0.298 11.55 0.667 11.55 Z" fill="currentColor" fill-rule="nonzero"></path>
</svg>