<svg xmlns="http://www.w3.org/2000/svg" width="18" height="18.900" viewBox="0 0 18 18.900" fill="none">
  <path d="M 7.855 0 C 5.922 0 4.355 1.567 4.355 3.5 L 4.355 3.605 L 3.15 3.605 C 1.41 3.605 0 5.015 0 6.754 L 0 15.751 C 0 17.49 1.41 18.9 3.15 18.9 L 14.85 18.9 C 16.59 18.9 18 17.49 18 15.751 L 18 6.754 C 18 5.015 16.59 3.605 14.85 3.605 L 13.555 3.605 L 13.555 3.5 C 13.555 1.567 11.988 0 10.055 0 L 7.855 0 Z M 11.555 3.605 L 11.555 3.5 C 11.555 2.672 10.884 2 10.055 2 L 7.855 2 C 7.027 2 6.355 2.672 6.355 3.5 L 6.355 3.605 L 11.555 3.605 Z" fill="currentColor" fill-rule="evenodd"></path>
</svg>