<svg xmlns="http://www.w3.org/2000/svg" width="18.168" height="18.677" viewBox="0 0 18.168 18.677" fill="none">
  <path d="M 5.371 1.288 C 4.603 0.873 3.973 0.533 3.468 0.315 C 2.982 0.105 2.416 -0.084 1.848 0.039 C 1.096 0.2 0.467 0.712 0.157 1.416 C -0.078 1.948 -0.007 2.54 0.1 3.059 C 0.211 3.597 0.417 4.283 0.668 5.119 L 1.935 9.339 L 0.668 13.559 C 0.417 14.394 0.211 15.08 0.1 15.619 C -0.007 16.137 -0.078 16.73 0.157 17.262 C 0.467 17.965 1.096 18.477 1.848 18.639 C 2.416 18.761 2.982 18.572 3.468 18.362 C 3.973 18.145 4.603 17.804 5.371 17.389 L 16.23 11.519 C 16.624 11.306 16.972 11.118 17.236 10.943 C 17.501 10.767 17.818 10.518 17.995 10.131 C 18.226 9.628 18.226 9.049 17.995 8.547 C 17.818 8.159 17.501 7.911 17.236 7.735 C 16.972 7.559 16.624 7.371 16.23 7.158 L 5.371 1.288 Z M 1.778 2.557 C 1.624 2.045 2.167 1.603 2.638 1.857 L 16.316 9.251 C 16.34 9.264 16.35 9.277 16.356 9.286 C 16.363 9.299 16.368 9.317 16.368 9.339 C 16.368 9.361 16.363 9.379 16.356 9.391 C 16.35 9.401 16.34 9.413 16.316 9.427 L 2.638 16.82 C 2.167 17.075 1.624 16.632 1.778 16.12 L 3.544 10.239 L 8.871 10.239 C 9.368 10.239 9.771 9.836 9.771 9.339 C 9.771 8.842 9.368 8.439 8.871 8.439 L 3.544 8.439 L 1.778 2.557 Z" fill="currentColor" fill-rule="evenodd"></path>
</svg>