<svg xmlns="http://www.w3.org/2000/svg" width="20.180" height="19.999" viewBox="0 0 20.180 19.999" fill="none">
  <path d="M 7.795 4.536 C 8.007 4.546 8.194 4.61 8.384 4.695 C 8.666 4.868 8.869 5.115 9.01 5.41 C 9.11 5.618 9.213 5.893 9.323 6.183 L 9.805 7.46 C 10.15 8.374 10.274 8.679 10.451 8.929 C 10.621 9.169 10.83 9.38 11.071 9.55 C 11.32 9.726 11.627 9.849 12.54 10.194 L 13.818 10.677 C 14.108 10.786 14.382 10.889 14.59 10.989 C 14.763 11.072 15.111 11.25 15.304 11.616 C 15.518 12.024 15.518 12.511 15.304 12.919 C 15.112 13.285 14.763 13.462 14.59 13.545 C 14.382 13.645 14.108 13.748 13.818 13.857 L 12.54 14.34 C 11.628 14.685 11.32 14.809 11.071 14.985 C 10.831 15.155 10.621 15.365 10.451 15.605 C 10.274 15.855 10.15 16.161 9.805 17.075 L 9.323 18.353 C 9.213 18.642 9.11 18.917 9.01 19.125 C 8.927 19.297 8.75 19.646 8.384 19.839 C 7.977 20.053 7.489 20.053 7.081 19.839 C 6.715 19.646 6.537 19.298 6.455 19.125 C 6.355 18.917 6.252 18.643 6.142 18.353 L 5.66 17.075 C 5.314 16.162 5.192 15.855 5.015 15.605 C 4.845 15.365 4.634 15.155 4.394 14.985 C 4.145 14.809 3.839 14.685 2.925 14.34 L 1.648 13.857 C 1.358 13.748 1.083 13.645 0.875 13.545 C 0.703 13.462 0.354 13.286 0.161 12.919 C -0.054 12.511 -0.054 12.024 0.161 11.616 C 0.354 11.25 0.703 11.072 0.875 10.989 C 1.083 10.89 1.358 10.786 1.648 10.677 L 2.925 10.194 C 3.838 9.849 4.145 9.726 4.394 9.55 C 4.634 9.38 4.845 9.169 5.015 8.929 C 5.191 8.679 5.315 8.373 5.66 7.46 L 6.142 6.183 C 6.252 5.893 6.355 5.618 6.455 5.41 C 6.538 5.237 6.715 4.888 7.081 4.695 C 7.304 4.578 7.551 4.525 7.795 4.536 Z M 7.342 8.096 C 7.03 8.922 6.824 9.488 6.484 9.969 C 6.196 10.376 5.84 10.732 5.433 11.02 C 4.952 11.36 4.386 11.566 3.56 11.878 L 2.53 12.267 L 3.56 12.656 C 4.386 12.969 4.952 13.175 5.433 13.516 C 5.84 13.804 6.196 14.159 6.484 14.566 C 6.824 15.048 7.03 15.613 7.342 16.438 L 7.731 17.468 L 8.121 16.438 C 8.433 15.613 8.64 15.048 8.98 14.566 C 9.268 14.16 9.624 13.804 10.031 13.516 C 10.512 13.175 11.077 12.968 11.903 12.656 L 12.932 12.267 L 11.903 11.878 C 11.077 11.566 10.512 11.36 10.031 11.02 C 9.624 10.732 9.268 10.376 8.98 9.969 C 8.639 9.487 8.433 8.922 8.121 8.096 L 7.731 7.065 L 7.342 8.096 Z" fill="currentColor" fill-rule="evenodd"></path>
  <path d="M 15.452 0 C 15.582 0 15.712 0.023 15.835 0.071 L 15.956 0.128 C 16.173 0.267 16.326 0.451 16.427 0.689 C 16.483 0.821 16.539 0.99 16.592 1.15 L 16.818 1.835 C 17.017 2.438 17.076 2.59 17.156 2.708 C 17.24 2.831 17.347 2.939 17.47 3.023 C 17.588 3.104 17.74 3.161 18.344 3.36 L 19.028 3.587 C 19.375 3.702 19.752 3.807 19.982 4.114 L 20.051 4.223 L 20.107 4.343 C 20.163 4.486 20.187 4.64 20.178 4.791 C 20.169 4.943 20.126 5.093 20.051 5.23 C 19.882 5.54 19.577 5.664 19.49 5.701 C 19.358 5.757 19.188 5.813 19.028 5.866 L 18.344 6.092 C 17.74 6.291 17.588 6.35 17.47 6.43 C 17.347 6.514 17.24 6.621 17.156 6.744 C 17.075 6.862 17.017 7.014 16.818 7.618 L 16.592 8.302 C 16.539 8.462 16.483 8.632 16.427 8.764 C 16.391 8.85 16.267 9.155 15.956 9.325 C 15.8 9.411 15.626 9.454 15.453 9.454 C 15.279 9.454 15.106 9.411 14.949 9.325 C 14.638 9.155 14.513 8.849 14.477 8.764 C 14.421 8.632 14.366 8.462 14.313 8.302 L 14.086 7.618 C 13.887 7.014 13.83 6.862 13.749 6.744 C 13.665 6.621 13.557 6.514 13.434 6.43 C 13.316 6.35 13.164 6.291 12.561 6.092 L 11.876 5.866 C 11.716 5.813 11.547 5.757 11.415 5.701 C 11.329 5.664 11.024 5.541 10.854 5.23 C 10.683 4.917 10.682 4.536 10.854 4.223 L 10.923 4.114 C 10.945 4.085 10.967 4.058 10.991 4.033 C 11.225 3.784 11.562 3.691 11.876 3.587 L 12.561 3.36 C 13.165 3.161 13.316 3.104 13.434 3.023 C 13.557 2.939 13.665 2.831 13.749 2.708 C 13.829 2.59 13.887 2.438 14.086 1.835 L 14.313 1.15 C 14.366 0.99 14.421 0.821 14.477 0.689 C 14.514 0.602 14.639 0.297 14.949 0.128 L 15.069 0.071 C 15.192 0.023 15.322 0 15.452 0 Z M 15.453 2.485 C 15.308 2.921 15.19 3.263 14.989 3.558 C 14.799 3.836 14.559 4.076 14.281 4.266 C 13.985 4.467 13.642 4.587 13.205 4.731 C 13.588 4.865 13.896 4.992 14.167 5.178 C 14.497 5.403 14.782 5.687 15.006 6.017 C 15.192 6.288 15.317 6.597 15.451 6.98 C 15.596 6.542 15.716 6.198 15.917 5.902 C 16.107 5.624 16.347 5.384 16.625 5.194 C 16.92 4.993 17.262 4.875 17.698 4.73 C 17.262 4.586 16.92 4.466 16.625 4.266 C 16.348 4.076 16.107 3.835 15.917 3.558 C 15.717 3.263 15.597 2.921 15.453 2.485 Z" fill="currentColor" fill-rule="evenodd"></path>
</svg>