<svg xmlns="http://www.w3.org/2000/svg" width="20.721" height="19.887" viewBox="0 0 20.721 19.887" fill="none">
  <path d="M 11.222 0.207 C 10.681 -0.069 10.04 -0.069 9.499 0.207 C 9.065 0.428 8.815 0.838 8.649 1.155 C 8.473 1.49 8.286 1.939 8.068 2.464 L 6.863 5.361 C 6.791 5.535 6.752 5.628 6.719 5.695 C 6.709 5.715 6.702 5.728 6.698 5.734 C 6.692 5.74 6.686 5.745 6.678 5.749 C 6.671 5.751 6.657 5.753 6.635 5.756 C 6.561 5.767 6.46 5.775 6.273 5.79 L 3.144 6.041 C 2.578 6.087 2.094 6.125 1.721 6.189 C 1.367 6.249 0.9 6.359 0.556 6.704 C 0.126 7.134 -0.071 7.743 0.023 8.343 C 0.099 8.825 0.412 9.189 0.663 9.445 C 0.927 9.716 1.296 10.032 1.728 10.401 L 4.111 12.443 C 4.254 12.565 4.331 12.631 4.384 12.683 C 4.4 12.699 4.41 12.709 4.415 12.715 C 4.419 12.722 4.421 12.73 4.423 12.738 C 4.422 12.746 4.42 12.76 4.416 12.782 C 4.403 12.856 4.38 12.954 4.337 13.137 L 3.609 16.19 C 3.477 16.742 3.364 17.215 3.309 17.589 C 3.257 17.944 3.218 18.422 3.439 18.857 C 3.715 19.398 4.233 19.774 4.833 19.87 C 5.315 19.946 5.758 19.761 6.079 19.602 C 6.418 19.434 6.833 19.18 7.317 18.884 L 9.996 17.249 C 10.156 17.15 10.243 17.098 10.309 17.063 C 10.328 17.053 10.341 17.047 10.348 17.044 C 10.356 17.043 10.365 17.043 10.373 17.044 C 10.38 17.047 10.393 17.053 10.413 17.063 C 10.479 17.098 10.565 17.15 10.726 17.249 L 13.404 18.885 C 13.888 19.18 14.303 19.434 14.642 19.602 C 14.964 19.761 15.406 19.946 15.888 19.87 C 16.488 19.774 17.006 19.398 17.282 18.857 C 17.504 18.422 17.464 17.944 17.412 17.589 C 17.357 17.215 17.245 16.742 17.113 16.19 L 16.385 13.137 C 16.341 12.954 16.318 12.856 16.305 12.782 C 16.301 12.76 16.299 12.746 16.299 12.738 C 16.3 12.73 16.303 12.722 16.306 12.715 C 16.311 12.709 16.321 12.699 16.337 12.683 C 16.391 12.631 16.467 12.565 16.61 12.443 L 18.994 10.401 C 19.425 10.032 19.794 9.716 20.059 9.445 C 20.309 9.189 20.622 8.825 20.698 8.343 C 20.793 7.743 20.595 7.134 20.166 6.704 C 19.821 6.359 19.354 6.249 19.001 6.189 C 18.627 6.125 18.143 6.087 17.577 6.041 L 14.448 5.79 C 14.261 5.775 14.16 5.767 14.087 5.756 C 14.064 5.753 14.05 5.751 14.043 5.749 C 14.036 5.745 14.029 5.74 14.023 5.734 C 14.019 5.728 14.012 5.715 14.002 5.695 C 13.97 5.628 13.93 5.535 13.858 5.361 L 12.653 2.464 C 12.435 1.939 12.248 1.49 12.072 1.155 C 11.906 0.838 11.657 0.428 11.222 0.207 Z" fill="currentColor" fill-rule="nonzero"></path>
</svg>