<svg xmlns="http://www.w3.org/2000/svg" width="20.721" height="19.887" viewBox="0 0 20.721 19.887" fill="none">
  <path d="M 9.499 0.207 C 10.04 -0.069 10.681 -0.069 11.222 0.207 C 11.657 0.428 11.906 0.838 12.072 1.155 C 12.248 1.49 12.435 1.939 12.653 2.464 L 13.858 5.361 C 13.93 5.535 13.97 5.628 14.002 5.695 C 14.012 5.715 14.019 5.728 14.023 5.734 C 14.029 5.74 14.036 5.745 14.043 5.749 C 14.05 5.751 14.064 5.753 14.087 5.756 C 14.16 5.767 14.261 5.775 14.448 5.79 L 17.577 6.041 C 18.143 6.087 18.627 6.125 19.001 6.189 C 19.354 6.249 19.821 6.359 20.166 6.704 C 20.595 7.134 20.793 7.743 20.698 8.343 C 20.622 8.825 20.309 9.189 20.059 9.445 C 19.794 9.716 19.425 10.032 18.994 10.401 L 16.61 12.443 C 16.467 12.565 16.391 12.631 16.337 12.683 C 16.321 12.699 16.311 12.709 16.306 12.715 C 16.303 12.722 16.3 12.73 16.299 12.738 C 16.299 12.746 16.301 12.76 16.305 12.782 C 16.318 12.856 16.341 12.954 16.385 13.137 L 17.113 16.19 C 17.244 16.742 17.357 17.215 17.412 17.589 C 17.464 17.944 17.504 18.422 17.282 18.857 C 17.006 19.398 16.488 19.774 15.888 19.87 C 15.406 19.946 14.964 19.761 14.642 19.602 C 14.303 19.434 13.889 19.181 13.404 18.885 L 10.725 17.249 C 10.565 17.15 10.478 17.098 10.413 17.063 C 10.393 17.053 10.38 17.047 10.373 17.044 C 10.365 17.043 10.356 17.043 10.348 17.044 C 10.341 17.047 10.328 17.053 10.308 17.063 C 10.243 17.098 10.156 17.15 9.996 17.249 L 7.317 18.884 C 6.833 19.18 6.418 19.434 6.079 19.602 C 5.758 19.761 5.315 19.946 4.833 19.87 C 4.233 19.774 3.715 19.398 3.439 18.857 C 3.218 18.422 3.257 17.944 3.309 17.589 C 3.364 17.215 3.477 16.742 3.609 16.19 L 4.337 13.137 C 4.38 12.954 4.403 12.856 4.416 12.782 C 4.42 12.76 4.422 12.746 4.423 12.738 C 4.421 12.73 4.419 12.722 4.415 12.715 C 4.41 12.709 4.4 12.699 4.384 12.683 C 4.331 12.631 4.254 12.565 4.111 12.443 L 1.728 10.401 C 1.296 10.032 0.927 9.716 0.663 9.445 C 0.412 9.189 0.099 8.825 0.023 8.343 C -0.071 7.743 0.126 7.134 0.556 6.704 C 0.9 6.359 1.367 6.249 1.721 6.189 C 2.094 6.125 2.578 6.087 3.144 6.041 L 6.273 5.79 C 6.46 5.775 6.561 5.767 6.635 5.756 C 6.657 5.753 6.671 5.751 6.678 5.749 C 6.686 5.745 6.692 5.74 6.698 5.734 C 6.702 5.728 6.709 5.715 6.719 5.695 C 6.752 5.628 6.791 5.535 6.863 5.361 L 8.068 2.464 C 8.286 1.939 8.473 1.49 8.649 1.155 C 8.815 0.838 9.065 0.428 9.499 0.207 Z M 10.303 1.816 C 10.295 1.821 10.282 1.831 10.268 1.863 L 8.384 6.393 C 8.111 7.05 7.492 7.5 6.782 7.557 L 1.892 7.949 C 1.857 7.952 1.844 7.961 1.837 7.967 C 1.826 7.976 1.813 7.993 1.805 8.018 C 1.797 8.043 1.798 8.064 1.801 8.077 C 1.803 8.086 1.808 8.102 1.835 8.125 L 5.561 11.316 C 6.102 11.779 6.338 12.507 6.173 13.2 L 5.034 17.971 C 5.026 18.005 5.031 18.021 5.035 18.03 C 5.04 18.043 5.052 18.06 5.073 18.076 C 5.094 18.091 5.114 18.097 5.128 18.098 C 5.137 18.098 5.154 18.098 5.184 18.08 L 9.37 15.523 C 9.978 15.152 10.743 15.152 11.351 15.523 L 15.537 18.08 C 15.567 18.098 15.584 18.098 15.593 18.098 C 15.607 18.097 15.627 18.091 15.648 18.076 C 15.669 18.06 15.681 18.043 15.686 18.03 C 15.69 18.021 15.695 18.005 15.687 17.971 L 14.549 13.2 C 14.383 12.507 14.62 11.779 15.161 11.316 L 18.886 8.125 C 18.913 8.102 18.918 8.086 18.92 8.077 C 18.924 8.064 18.924 8.043 18.916 8.018 C 18.908 7.993 18.895 7.976 18.884 7.967 C 18.877 7.961 18.864 7.952 18.829 7.949 L 13.939 7.557 C 13.229 7.5 12.61 7.05 12.337 6.393 L 10.453 1.863 C 10.44 1.831 10.426 1.821 10.418 1.816 C 10.407 1.809 10.387 1.802 10.361 1.802 C 10.334 1.802 10.314 1.809 10.303 1.816 Z" fill="currentColor" fill-rule="evenodd"></path>
</svg>