<svg xmlns="http://www.w3.org/2000/svg" width="64" height="64" viewBox="0 0 512 512">
  <defs>
    <linearGradient id="bg" x1="0" y1="0" x2="0" y2="1">
      <stop offset="0" stop-color="#eef7ef"/><stop offset="1" stop-color="#cfe6d3"/>
    </linearGradient>
    <linearGradient id="leaf" x1="0.2" y1="0" x2="0.5" y2="1">
      <stop offset="0" stop-color="#7fc98f"/><stop offset="0.55" stop-color="#57b97c"/><stop offset="1" stop-color="#2f9e60"/>
    </linearGradient>
    <linearGradient id="trunk" x1="0" y1="0" x2="1" y2="0">
      <stop offset="0" stop-color="#6f553c"/><stop offset="0.5" stop-color="#8a6a4a"/><stop offset="1" stop-color="#6f553c"/>
    </linearGradient>
  </defs>
  <rect width="512" height="512" rx="112" fill="url(#bg)"/>
  <path d="M247 250 C243 302 240 352 235 390 C234 399 240 404 249 404 L263 404 C272 404 278 399 277 390 C272 352 269 302 265 250 Z" fill="url(#trunk)"/>
  <circle cx="199" cy="234" r="73" fill="url(#leaf)"/>
  <circle cx="313" cy="234" r="73" fill="url(#leaf)"/>
  <circle cx="256" cy="166" r="88" fill="url(#leaf)"/>
  <circle cx="232" cy="146" r="42" fill="#b7e0c0" opacity="0.55"/>
  <circle cx="212" cy="252" r="12" fill="#e8954a"/>
  <circle cx="300" cy="196" r="12" fill="#d9a13b"/>
</svg>
